# xmcd CD database file
#
# Track frame offsets:
#	187
#	25572
#	48897
#	74270
#
# Disc length: 1302 seconds
#
# Revision: 0
# Processed by: cddbd v1.5.1PL2 Copyright (c) Steve Scherf et al.
# Submitted via: CDex 1.51
#
DISCID=27051404
DTITLE=Ｓｉｎｃｅｒｅ - ＤＡＹ　ＡＦＴＥＲ　ＤＡＹ（愛はいつか・・・）
DYEAR=1900
DGENRE=JPop
TTITLE0=ＤＡＹ　ＡＦＴＥＲ　ＤＡＹ〜愛はいつか・・・〜
TTITLE1=ＮＥＶＥＲ　ＧＩＶＥＵＰ
TTITLE2=ＤＡＹ　ＡＦＴＥＲ　ＤＡＹ〜愛はいつか・・・〜（Ｏｒｉｇｉｎａｌ−Ｋａｒａｏｋｅ）
TTITLE3=ＮＥＶＥＲ　ＧＩＶＥＵＰ（Ｏｒｉｇｉｎａｌ−Ｋａｒａｏｋｅ）
EXTD=
EXTT0=
EXTT1=
EXTT2=
EXTT3=
PLAYORDER=
